<?xml version="1.0" encoding="utf-8"?>
<svg width="321.825" height="341.68" viewBox="0 0 321.825 341.68" fill="none" xmlns="http://www.w3.org/2000/svg">
  <g>
    <g transform="translate(96.175 0)">
      <g transform="translate(0.012 0.001)">
        <g>
          <path d="M13.3048 107.326C21.0428 96.1533 26.9758 84.0093 26.2818 70.2913C25.2663 50.1943 29.6155 27.9953 42.9758 13.4553C51.3602 4.33051 64.9918 0.260307 77.6328 0.00530624C90.2747 -0.250504 101.87 8.79451 96.5988 15.6893C91.2514 22.6832 93.6392 29.6653 95.4129 31.0753C101.316 35.7684 90.6486 43.3163 86.5285 49.0583C81.795 55.6552 78.4389 63.5173 81.9307 71.6023C88.0052 85.6663 97.0367 98.0583 105.682 110.139C112.147 119.175 106.35 123.173 98.179 129.365C76.635 145.689 76.525 170.766 87.837 192.291C110.429 231.372 141.888 233.136 181.033 242.16C192.356 244.288 204.78 243.903 211.241 254.554C214.526 259.971 232.64 277.989 221.154 270.307C195.308 253.02 189.929 266.288 181.826 264.113C169.135 260.706 158.98 248.14 146.84 245.067C139.998 243.334 124.957 248.315 131.472 261.131C137.725 273.431 127.837 290.055 122.703 303.375C117.522 316.819 131.793 310.848 132.293 313.272C132.605 314.783 119.507 316.971 122.572 330.473C123.922 336.422 121.988 341.483 120.188 341.333C112.884 340.726 120.377 319.345 105.935 327.088C98.6421 330.998 72.6033 337.558 77.7073 331.628C81.6553 327.041 112.411 319.587 87.7763 321.842C77.4723 322.785 66.3443 313.682 81.3231 316.184C92.9431 318.125 113.64 322.058 114.742 304.485C115.563 291.387 115.602 282.051 106.562 271.208C103.042 266.986 102.724 259.281 101.304 253.009C96.6777 237.111 80.7513 239.432 84.1933 258.344C85.6169 265.52 87.2487 273.61 80.2034 278.769C72.9489 284.081 60.3404 305.762 74.7332 307.553C79.8699 308.192 97.4782 307.664 84.5565 311.46C75.9681 313.983 59.4565 310.229 67.7585 324.47C76.0956 338.771 62.977 327.451 60.2109 319.594C57.3328 311.418 35.4869 327.243 24.2029 328.17C11.1319 329.243 28.8613 316.505 36.3809 317.377C45.5536 318.44 47.2619 308.139 36.8691 313.517C30.1555 316.992 7.72908 309.356 19.2021 306.607C29.2911 304.189 47.4841 313.092 55.4321 304.981C65.7541 294.447 63.8867 278.604 59.2655 263.677C54.6123 248.646 50.3896 233.339 38.4165 222.419C4.45549 191.459 -14.3055 147.229 13.3165 107.349C13.3165 107.349 13.3048 107.326 13.3048 107.326Z" fill="#5A7075" fill-rule="evenodd" />
          <path d="M4.62885 15.4132C-0.103653 12.472 -1.80095 5.16024 2.37215 0.860241C3.35571 -0.15316 5.01144 -0.25296 6.23854 0.464703C8.30844 1.6752 9.52763 4.1241 11.8329 4.8726C17.8696 6.8325 20.6211 10.8309 24.2919 15.3336C26.1553 17.6193 25.7916 20.0668 22.62 19.0704C19.0274 17.9418 15.7637 16.1175 11.964 15.7396C9.48543 15.4931 6.73174 16.7199 4.62883 15.413C4.62883 15.413 4.62885 15.4132 4.62885 15.4132Z" fill="#D4AA00" fill-rule="evenodd" transform="translate(95.666 17.913)" />
          <path d="M23.1524 16.0583C13.4558 25.8082 1.99344 29.2673 0.127441 50.1023C-1.10855 63.9043 6.78754 79.4123 17.6544 92.0873C29.6994 107.143 42.7764 115.354 61.0724 119.87C65.1709 120.736 70.6559 120.877 70.8394 117.569C71.2247 110.622 79.1348 111.713 82.8035 109.405C88.4742 105.837 80.9155 96.3162 84.9525 93.9462C89.1345 91.4914 90.7552 86.6696 87.8745 83.8232C75.9455 72.0362 88.9391 82.3672 79.2502 94.4972C71.7136 103.933 63.5262 112.428 50.7452 110.624C34.4292 108.321 60.7106 91.3022 50.7448 102.001C45.5718 107.555 60.3158 105.7 67.7438 99.207C75.1722 92.7139 79.8878 82.713 77.5299 76.715C69.7769 56.99 53.3579 12.458 36.3299 4.01199C16.6199 -5.7641 35.232 3.9115 23.1519 16.058C23.1519 16.058 23.1524 16.0583 23.1524 16.0583Z" fill="#8BA7B0" fill-rule="evenodd" transform="translate(84.632 110.728)" />
          <path d="M42.3408 38.3921C44.0802 36.6089 42.2084 34.6894 41.0376 33.4501C38.8672 31.1528 41.7103 29.5083 43.9003 30.2965C46.5829 31.2618 47.078 28.2561 46.2594 26.3608C44.5746 22.4602 40.6279 20.3545 37.0482 18.0567C20.9412 7.71765 38.4936 20.3342 35.9985 27.5483C32.7919 36.8195 18.6174 36.4834 11.5815 31.5682C6.04407 27.6999 15.0598 21.9164 16.9343 27.3207C18.7114 32.4444 27.1603 29.7461 30.1253 26.4874C31.8494 24.5926 31.0348 21.0943 29.8862 18.8059C26.679 12.4162 23.3691 5.78586 18.5362 0.448868C17.2163 -1.00864 15.4902 1.44673 16.5514 2.64836C17.7782 4.03746 22.1664 11.457 15.5676 6.92656C12.9596 5.13606 11.0764 8.62206 12.0643 10.8845C14.2474 15.8839 13.6379 22.9364 9.09541 23.7775C-0.645782 25.5806 -0.744186 28.9693 0.630707 32.2288C1.35835 33.954 9.22441 37.4169 17.8117 38.2526C23.0513 38.7625 28.6427 36.6988 32.5727 38.2466C37.3881 40.1425 39.2438 41.5674 42.3407 38.3925C42.3407 38.3925 42.3407 38.3922 42.3407 38.3922C42.3407 38.3922 42.3408 38.3921 42.3408 38.3921Z" fill="#9E528E" fill-rule="evenodd" transform="translate(158.564 199.184)" />
          <path d="M6.22783 18.1788C9.31723 18.8991 13.0615 19.0675 15.7051 17.314C18.0741 15.7426 19.7459 12.6337 19.7223 9.79104C19.6964 6.66584 17.7492 3.35884 15.1694 1.59474C12.982 0.098938 9.72752 -0.527561 7.29272 0.518539C3.47432 2.15914 0.37883 6.50134 0.014328 10.6415C-0.157272 12.5901 1.24342 14.4801 2.55482 15.9317C3.51703 16.9968 4.83002 17.8532 6.22783 18.1792C6.22783 18.1792 6.22783 18.1788 6.22783 18.1788Z" fill="#D47231" fill-rule="evenodd" transform="translate(60.037 6.118)" />
          <path d="M0.0101013 5.17605C0.171112 2.80715 3.2121 -0.0412483 5.58611 0.000453949C8.23041 0.0468941 11.0835 2.94365 11.2224 5.58475C11.3636 8.26896 8.46602 11.3951 5.77811 11.4012C2.75551 11.408 -0.194901 8.19176 0.0101013 5.17616C0.0101013 5.17616 0.0101013 5.17605 0.0101013 5.17605Z" fill="#000000" fill-rule="evenodd" transform="translate(64.595 9.971)" />
        </g>
      </g>
    </g>
    <g transform="translate(0 107.68)">
      <g transform="translate(0.008 0)">
        <g>
          <path d="M9.08014 73.5715C14.3611 65.9125 18.4102 57.5878 17.9366 48.1842C17.2435 34.4079 20.2117 19.1906 29.3298 9.22352C35.0519 2.96853 44.3551 0.178439 52.9823 0.0036374C61.6101 -0.171719 69.5233 6.02858 65.926 10.7549C62.2766 15.5492 63.9062 20.3354 65.1167 21.3019C69.1457 24.519 61.8652 29.693 59.0533 33.6291C55.8228 38.1513 53.5324 43.5407 55.9155 49.0829C60.0611 58.7237 66.2249 67.2183 72.1249 75.4998C76.5375 81.6935 72.5809 84.4345 67.0045 88.6791C52.3013 99.8691 52.2262 117.059 59.9464 131.814C75.3648 158.604 96.8347 159.813 123.55 165.999C131.278 167.458 139.757 167.194 144.166 174.495C146.408 178.208 158.77 190.56 150.932 185.294C133.292 173.444 129.622 182.538 124.092 181.047C115.43 178.712 108.5 170.098 100.215 167.992C95.5451 166.804 85.2801 170.218 89.7264 179.003C93.9937 187.435 87.2451 198.831 83.7417 207.961C80.2056 217.177 89.9451 213.084 90.2864 214.746C90.499 215.781 81.5603 217.281 83.6521 226.537C84.5736 230.615 83.2534 234.084 82.0253 233.982C77.0402 233.566 82.154 218.909 72.298 224.217C67.3206 226.897 49.5498 231.394 53.0331 227.329C55.7275 224.185 76.7177 219.075 59.9049 220.621C52.8727 221.267 45.2782 215.027 55.5008 216.742C63.4311 218.073 77.5563 220.769 78.3084 208.723C78.8689 199.744 78.895 193.344 72.7255 185.912C70.3232 183.017 70.1065 177.736 69.1374 173.436C65.9799 162.538 55.1106 164.129 57.4596 177.093C58.4312 182.012 59.5449 187.558 54.7366 191.095C49.7856 194.736 41.1807 209.598 51.0034 210.826C54.509 211.264 66.5262 210.902 57.7075 213.504C51.8462 215.233 40.5774 212.66 46.2433 222.422C51.9332 232.225 42.9801 224.466 41.0923 219.08C39.1281 213.475 24.2189 224.323 16.5178 224.958C7.59723 225.694 19.6971 216.962 24.829 217.56C31.0891 218.289 32.255 211.227 25.1621 214.914C20.5803 217.296 5.27489 212.061 13.1049 210.177C19.9904 208.519 32.4066 214.622 37.8309 209.063C44.8754 201.842 43.6009 190.981 40.4471 180.749C37.2714 170.445 34.3895 159.952 26.2182 152.467C3.04075 131.244 -9.76312 100.925 9.08814 73.5871C9.08814 73.5871 9.08014 73.5715 9.08014 73.5715Z" fill="#39474A" fill-rule="evenodd" />
          <path d="M3.15906 10.5657C-0.0707397 8.5495 -1.2291 3.53731 1.61893 0.589689C2.29018 -0.10499 3.42017 -0.173403 4.25764 0.318551C5.67029 1.14834 6.50235 2.82705 8.07566 3.34014C12.1955 4.68363 14.0734 7.42451 16.5786 10.5111C17.8503 12.0779 17.6021 13.7557 15.4376 13.0726C12.9857 12.299 10.7583 11.0484 8.16513 10.7894C6.47355 10.6204 4.59422 11.4614 3.15905 10.5655C3.15905 10.5655 3.15906 10.5657 3.15906 10.5657Z" fill="#D4AA00" fill-rule="evenodd" transform="matrix(1 0 0 1 65.289 12.279)" />
          <path d="M15.8009 11.0079C9.18325 17.6913 1.36047 20.0625 0.0869751 34.3448C-0.756557 43.806 4.63231 54.4366 12.0487 63.1252C20.2691 73.446 29.1938 79.0746 41.6803 82.1703C44.4773 82.764 48.2208 82.8601 48.346 80.5924C48.609 75.8303 54.0074 76.5787 56.5111 74.9966C60.3813 72.5504 55.2226 66.0241 57.9777 64.3995C60.8319 62.7168 61.938 59.4115 59.972 57.4603C51.8308 49.3803 60.6986 56.4622 54.0861 64.7772C48.9426 71.2455 43.3549 77.0688 34.6323 75.8322C23.497 74.2536 41.4334 62.5871 34.632 69.921C31.1015 73.7281 41.1639 72.4567 46.2333 68.0058C51.303 63.5548 54.5213 56.6992 52.9121 52.5876C47.6209 39.0663 36.4154 8.53987 24.7942 2.7502C11.3427 -3.95125 24.0449 2.6813 15.8006 11.0077C15.8006 11.0077 15.8009 11.0079 15.8009 11.0079Z" fill="#4E6469" fill-rule="evenodd" transform="matrix(1 0 0 1 57.759 75.903)" />
          <path d="M28.8964 26.3176C30.0835 25.0952 28.8061 23.7794 28.007 22.9299C26.5258 21.355 28.4661 20.2278 29.9607 20.768C31.7915 21.4298 32.1294 19.3693 31.5708 18.0701C30.4209 15.3963 27.7274 13.9529 25.2844 12.3777C14.2918 5.29041 26.2708 13.9389 24.568 18.8842C22.3795 25.2395 12.7059 25.0091 7.90404 21.6398C4.12491 18.9881 10.2779 15.0235 11.5572 18.7281C12.77 22.2404 18.5362 20.3907 20.5597 18.1569C21.7363 16.8581 21.1804 14.46 20.3965 12.8913C18.2077 8.5112 15.9488 3.96617 12.6504 0.307693C11.7496 -0.691406 10.5716 0.99173 11.2959 1.81543C12.1331 2.76765 15.1279 7.85367 10.6245 4.74811C8.84458 3.52074 7.55934 5.91037 8.23357 7.46123C9.72347 10.8883 9.30751 15.7228 6.20737 16.2993C-0.440727 17.5354 -0.507889 19.8582 0.430443 22.0927C0.92704 23.2753 6.29541 25.6491 12.156 26.2219C15.7319 26.5715 19.5479 25.1568 22.23 26.2178C25.5163 27.5174 26.7828 28.4942 28.8964 26.3178C28.8964 26.3178 28.8964 26.3176 28.8964 26.3176C28.8964 26.3176 28.8964 26.3176 28.8964 26.3176Z" fill="#824575" fill-rule="evenodd" transform="matrix(1 0 0 1 108.216 136.54)" />
          <path d="M4.25032 12.4614C6.35876 12.9552 8.91413 13.0706 10.7183 11.8687C12.3351 10.7915 13.4761 8.66034 13.4599 6.71169C13.4423 4.56939 12.1134 2.30246 10.3527 1.09318C8.85988 0.0678215 6.63877 -0.36164 4.97709 0.355455C2.37113 1.48007 0.258541 4.45662 0.00977707 7.29471C-0.107334 8.63046 0.848602 9.92604 1.7436 10.9211C2.40028 11.6512 3.29636 12.2383 4.25032 12.4618C4.25032 12.4618 4.25032 12.4614 4.25032 12.4614Z" fill="#D47231" fill-rule="evenodd" transform="translate(40.974 4.194)" />
          <path d="M0.00689316 3.54815C0.116779 1.92428 2.19217 -0.0282755 3.81236 0.000311375C5.61703 0.0321455 7.56419 2.01786 7.65899 3.82831C7.75536 5.66831 5.77782 7.81123 3.9434 7.81542C1.88056 7.82008 -0.133015 5.6154 0.00689316 3.54822C0.00689316 3.54822 0.00689316 3.54815 0.00689316 3.54815Z" fill="#000000" fill-rule="evenodd" transform="matrix(1 0 0 1 44.084 6.835)" />
        </g>
      </g>
    </g>
  </g>
</svg>